<?xml version="1.0" encoding="UTF-8"?>
<svg version="1.1" xmlns="http://www.w3.org/2000/svg" width="3310" height="4225">
<path d="M0 0 C5.51951847 0.00754449 11.03896513 0.00481479 16.55848098 -0.0036037 C52.61067159 -0.05705463 88.59813243 0.03564042 124.59803176 2.25713849 C125.69807288 2.32464055 125.69807288 2.32464055 126.82033706 2.39350629 C136.38042276 2.98702165 145.92759591 3.71341106 155.47303176 4.50713849 C157.43118819 4.66670529 157.43118819 4.66670529 159.42890334 4.82949567 C260.47351947 13.07063756 360.12909855 29.04645301 518.59803176 71.25713849 C519.41308181 71.50510175 520.22813186 71.753065 521.06788039 72.0085423 C587.19167505 92.15416832 651.6859765 116.62611473 714.59803176 145.25713849 C715.23229079 145.54568707 715.86654983 145.83423566 716.52002883 146.13152814 C741.25799018 157.39907783 765.98089003 168.92117552 789.9173677 181.82110333 C792.51122081 183.21063376 795.11267166 184.58514376 797.71677566 185.95535016 C812.2960495 193.62684973 826.69257068 201.508288 840.87537551 209.89776349 C845.62138182 212.70122966 850.41347722 215.41113546 855.22815871 218.09454083 C867.13730885 224.73448724 878.72719386 231.81111695 890.23328567 239.12481427 C892.75723826 240.72430651 895.28548906 242.31574981 897.8182466 243.90118146 C909.00969601 250.91737362 920.05957873 258.12721096 931.04187942 265.46612287 C933.72627209 267.25930304 936.41393789 269.04749674 939.10193801 270.83526349 C950.05934654 278.13723917 960.88880833 285.59596885 971.59803176 293.25713849 C972.93583694 294.2118504 972.93583694 294.2118504 974.30066848 295.18584943 C976.36237697 296.66217916 978.419354 298.14466402 980.47303176 299.63213849 C981.57227981 300.42793317 981.57227981 300.42793317 982.69373488 301.23980451 C984.99694106 302.90982434 987.2979554 304.58281106 989.59803176 306.25713849 C990.37436965 306.821909 991.15070754 307.38667951 991.95057082 307.96856427 C1002.97097291 315.99926863 1013.8228935 324.21995068 1024.5448091 332.6448338 C1026.45139839 334.14199381 1028.36178473 335.63412233 1030.27381301 337.12432599 C1042.04424628 346.31152832 1053.6539031 355.69588151 1065.02063918 365.37872052 C1068.30412758 368.173634 1071.62246813 370.91813261 1074.97303176 373.63213849 C1084.70147951 381.55691782 1094.1185966 389.8626012 1103.41443801 398.28838849 C1105.41541161 400.09248633 1107.43753486 401.86720866 1109.47303176 403.63213849 C1114.41831648 407.94188461 1119.23046566 412.39663918 1124.05555129 416.83965802 C1125.51303159 418.17902659 1126.97530886 419.51316974 1128.43787551 420.84698224 C1144.54643594 435.54134806 1160.17786902 450.67266022 1175.57654738 466.10528302 C1178.22083037 468.75532944 1180.86967308 471.40076613 1183.51980186 474.04496503 C1185.59613817 476.11766825 1187.67006335 478.19277094 1189.74329162 480.26858258 C1190.71922623 481.2451754 1191.69587938 482.2210508 1192.67332244 483.19613385 C1197.69622119 488.20953277 1202.60827694 493.25788161 1207.21763015 498.65655255 C1208.91656501 500.62648016 1210.7271718 502.45079094 1212.59803176 504.25713849 C1215.7221416 507.33959354 1218.62504264 510.53223621 1221.48475051 513.85870099 C1224.29540149 517.04860802 1227.1968259 520.1496974 1230.09803176 523.25713849 C1234.68894267 528.18324649 1239.22053601 533.13926291 1243.59803176 538.25713849 C1244.47425497 539.27934152 1245.35056521 540.30146995 1246.22693801 541.32354474 C1247.74130991 543.09014398 1249.25514606 544.85718978 1250.76746535 546.62554669 C1254.03364865 550.44250013 1257.31952838 554.24145306 1260.61878371 558.02984357 C1265.55753779 563.70358726 1270.42990891 569.41455284 1275.16443801 575.26104474 C1277.0570786 577.59114961 1278.9609194 579.90988732 1280.87537551 582.22198224 C1287.74420737 590.5187907 1294.52437067 598.86976178 1301.13367629 607.37481427 C1302.74151851 609.44158045 1304.35514688 611.50375503 1305.96912551 613.56573224 C1317.62792557 628.47979666 1328.92563374 643.62311576 1339.97010207 658.99688458 C1341.55605859 661.19886201 1343.14972096 663.39500875 1344.74646926 665.58916974 C1361.06285997 688.02578826 1376.51261963 710.98175474 1391.59803176 734.25713849 C1392.2660884 735.28758283 1392.93414504 736.31802716 1393.62244582 737.37969708 C1422.55406678 782.13788889 1448.90039943 828.56017043 1473.31678176 875.91729474 C1475.70131829 880.53836684 1478.12105971 885.13843729 1480.56995559 889.72564435 C1486.61200621 901.06586588 1492.15046155 912.62150584 1497.59803176 924.25713849 C1498.24913887 925.64276365 1498.90034837 927.0283407 1499.55164504 928.41387677 C1537.79720418 1009.86659626 1570.18028248 1094.24388121 1628.59803176 1315.44463849 C1628.82991195 1316.55371564 1629.06179214 1317.66279279 1629.300699 1318.80547833 C1632.09944777 1332.24207604 1634.61095868 1345.67577668 1636.59803176 1359.25713849 C1635.93803176 1359.58713849 1635.27803176 1359.91713849 1634.59803176 1360.25713849 C1634.74384437 1361.09204312 1634.74384437 1361.09204312 1634.89260268 1361.94381452 C1651.41216586 1456.75252415 1660.83821051 1552.35525711 1616.59803176 2048.25713849 C1616.37844802 2049.18981549 1616.15886428 2050.12249249 1615.93262649 2051.08343244 C1595.81098869 2136.26891378 1568.30190055 2220.00714438 1489.57648635 2398.27093244 C1488.64150611 2400.16888807 1487.7085749 2402.06783614 1486.77625442 2403.96709943 C1479.88021098 2417.99394522 1472.68706246 2431.80970694 1465.1204927 2445.48565412 C1463.54530658 2448.35311928 1461.99426108 2451.23250172 1460.44959426 2454.11651349 C1453.41130537 2467.25172548 1446.08018093 2480.17835225 1438.50623488 2493.01153302 C1436.46666765 2496.48057176 1434.4448772 2499.9595433 1432.42615676 2503.44073224 C1424.33196738 2517.38125541 1416.02030391 2531.13675263 1407.26014113 2544.67266583 C1405.63047819 2547.20668639 1404.02440154 2549.7539878 1402.42615676 2552.30791974 C1384.83181602 2580.36893769 1366.09374178 2607.92848274 1346.41761184 2634.57305646 C1343.57982152 2638.42597377 1340.90732342 2642.31300253 1338.38709426 2646.38213849 C1337.84641311 2647.21857892 1337.30573195 2648.05501935 1336.74866652 2648.91680646 C1335.72204637 2650.51047445 1334.73231532 2652.12879182 1333.78919387 2653.77325177 C1332.21146242 2656.16544319 1330.94195981 2657.59886132 1328.59803176 2659.25713849 C1325.83554339 2659.60500169 1325.83554339 2659.60500169 1322.54848647 2659.50837445 C1320.66717623 2659.46307945 1320.66717623 2659.46307945 1318.74785972 2659.4168694 C1317.36454109 2659.3647453 1315.98126547 2659.31146929 1314.59803176 2659.25713849 C1313.16935045 2659.21094433 1311.74064832 2659.16539052 1310.31192756 2659.12043309 C1305.41897606 2658.95656159 1300.52811213 2658.74955259 1295.63685012 2658.5420506 C1293.755186 2658.46434975 1291.87351186 2658.38689147 1289.99182868 2658.30965352 C1284.87996613 2658.09903733 1279.76826491 2657.88471988 1274.65658951 2657.66961527 C1270.3076279 2657.48703044 1265.95858198 2657.30649894 1261.6095354 2657.12595123 C1247.47649603 2656.53914162 1233.34376965 2655.94498539 1219.21109653 2655.34943032 C1214.30818516 2655.14295032 1209.40525162 2654.93699937 1204.50231862 2654.7310338 C1115.67283451 2650.99879377 1026.84998108 2647.14991229 34.59803176 2558.25713849 C35.9265937 2555.33070612 37.39367353 2553.18706219 39.60975051 2550.86651349 C40.20336379 2550.23874005 40.79697707 2549.61096662 41.40857863 2548.96416974 C42.02797317 2548.31834943 42.6473677 2547.67252912 43.28553176 2547.00713849 C46.8604784 2543.25171657 50.41104622 2539.50241237 53.77771926 2535.55791974 C58.3880583 2530.24779133 63.38855636 2525.31718487 68.36780715 2520.35699201 C70.03229453 2518.69786529 71.69136623 2517.03345798 73.34998488 2515.36846662 C78.38449508 2510.33080483 83.44544126 2505.37210561 88.86536574 2500.74468732 C91.62566196 2498.37488531 94.25761446 2495.8705565 96.91053176 2493.38213849 C101.68907551 2488.9360332 106.59275647 2484.72728358 111.68787551 2480.64385724 C114.41428671 2478.4078341 117.05416929 2476.1023819 119.69104934 2473.76299787 C126.01996119 2468.16708375 132.52881948 2462.8916621 139.28553176 2457.81963849 C140.01312697 2457.27227033 140.74072219 2456.72490216 141.49036574 2456.16094708 C157.43644915 2444.32415705 173.93790512 2433.24709554 190.47303176 2422.25713849 C191.39068313 2421.64640485 192.30833449 2421.03567121 193.25379348 2420.40643048 C206.60051197 2411.52621117 219.97423322 2402.70846874 233.59803176 2394.25713849 C234.60607863 2393.62984845 235.61412551 2393.00255841 236.65271926 2392.35625958 C250.53329552 2383.72874913 264.50423071 2375.26851721 278.6073091 2367.01006818 C281.29273181 2365.43608164 283.97564805 2363.85790778 286.65752578 2362.27789044 C317.72636883 2343.97544937 349.12391252 2326.27929253 380.65735793 2308.78985333 C387.78229234 2304.83400528 394.88535583 2300.84180116 401.97303176 2296.81963849 C410.60503703 2291.92272277 419.27914533 2287.10544858 427.97303176 2282.31963849 C446.33344809 2272.20837137 464.65235704 2262.04267776 482.72913527 2251.42974591 C489.39305937 2247.52270645 496.10556485 2243.71412286 502.84803176 2239.94463849 C512.78518372 2234.37395413 522.52792547 2228.50756868 532.24524856 2222.56573224 C539.51109902 2218.12364967 546.81266156 2213.75009254 554.16053176 2209.44463849 C563.2404869 2204.10873332 572.17177782 2198.57094734 581.03992629 2192.89092755 C583.77084181 2191.14676963 586.51013277 2189.41628936 589.25037551 2187.68682599 C611.45598968 2173.62946514 633.31985348 2158.97278957 654.66883254 2143.64190412 C656.73402613 2142.15952269 658.80471661 2140.68499928 660.87537551 2139.21026349 C687.07947888 2120.48194354 712.49989192 2100.56351265 736.98279738 2079.63409162 C738.64637719 2078.21592503 740.31699052 2076.80638533 741.98865676 2075.39776349 C748.86531379 2069.58173355 755.55170289 2063.6029256 762.09754348 2057.41607404 C765.35294787 2054.33979476 768.64842377 2051.32872272 772.00818801 2048.36651349 C778.94512844 2042.14221834 785.48799385 2035.51651775 792.0670259 2028.91851544 C794.28782483 2026.69233987 796.51394142 2024.47158217 798.74060988 2022.25127912 C800.1764776 2020.81475078 801.61203519 2019.37791238 803.04725051 2017.94073224 C803.70158568 2017.2884213 804.35592086 2016.63611035 805.03008437 2015.96403241 C808.86320277 2012.1116705 812.51557549 2008.1505812 816.06139541 2004.03188825 C818.30304685 2001.44287599 820.63883968 1998.95056542 822.97303176 1996.44463849 C827.26554384 1991.79809721 831.33141207 1987.01614609 835.29725051 1982.08526349 C837.3361352 1979.57906227 839.42164431 1977.12137788 841.53089309 1974.67437482 C847.69566476 1967.50377772 853.39159465 1960.03920089 858.99598098 1952.42559552 C860.64534698 1950.19309493 862.30977513 1947.97246733 863.97693801 1945.75323224 C881.98961307 1921.68570632 898.1109346 1896.38095143 912.21766067 1869.83721662 C913.48400403 1867.47026992 914.77553023 1865.11968299 916.07850051 1862.77276349 C954.97617729 1791.97202879 975.02585843 1709.12867997 984.78553176 1567.56963849 C984.78462539 1566.12004743 984.78462539 1566.12004743 984.7837007 1564.64117169 C984.64686514 1483.06715124 970.12536085 1402.37124246 913.59803176 1256.25713849 C913.12655715 1255.27567853 912.65508254 1254.29421857 912.16932082 1253.2830174 C905.24036803 1238.93088914 897.60626659 1225.03268144 889.59803176 1211.25713849 C889.11785598 1210.42537091 888.6376802 1209.59360333 888.14295363 1208.73663068 C863.54839356 1166.26911144 833.66865519 1126.11142169 800.26600051 1090.17120099 C798.28492305 1088.00738872 796.36012353 1085.82400566 794.4486177 1083.60064435 C790.57740237 1079.17149865 786.48480157 1074.99948912 782.32068801 1070.84698224 C781.55050841 1070.07584592 780.78032882 1069.3047096 779.98681045 1068.51020551 C778.36861803 1066.89133696 776.74917964 1065.27371298 775.12854934 1063.65728498 C772.66735944 1061.20145131 770.21155367 1058.74032484 767.75623488 1056.27862287 C766.17387309 1054.69692196 764.59120109 1053.11553132 763.00818801 1051.53448224 C762.28398162 1050.80825162 761.55977523 1050.082021 760.81362319 1049.33378339 C756.23402634 1044.77488132 751.49517557 1040.47096093 746.59803176 1036.25713849 C744.99034803 1034.80268332 743.38563461 1033.34492954 741.78553176 1031.88213849 C737.470286 1027.98789231 733.02711421 1024.29059125 728.50818801 1020.63604474 C725.92887981 1018.52759012 723.388435 1016.38382759 720.85779738 1014.21783185 C714.50625096 1008.78543842 708.00821052 1003.60062823 701.33435988 998.56817365 C699.52702819 997.20352641 697.72651362 995.83018977 695.92615676 994.45635724 C662.97415368 969.41115795 627.88109151 946.9654846 591.26600051 927.66680646 C588.82744213 926.37835148 586.39870638 925.07354564 583.97303176 923.76104474 C549.18440048 905.03047197 512.88912686 889.29165249 475.59803176 876.25713849 C474.94054946 876.02702069 474.28306716 875.79690289 473.60566115 875.55981183 C450.52889546 867.49942192 427.26539813 860.37165728 403.59803176 854.25713849 C402.84753554 854.06291303 402.09703933 853.86868756 401.3238008 853.66857648 C315.92533644 831.6637131 226.71353985 823.69423125 -130.40196824 902.25713849 C-131.43676316 902.73393048 -132.47155808 903.21072248 -133.53771043 903.70196271 C-146.87635375 909.87838151 -159.83023421 916.60324672 -172.67247605 923.74981427 C-175.39165551 925.25144343 -178.12404817 926.72534062 -180.86290574 928.19073224 C-194.3402449 935.41417223 -207.43990421 943.14710464 -220.40196824 951.25713849 C-221.41694383 951.89167951 -222.43191941 952.52622052 -223.47765183 953.17999005 C-238.76321059 962.77139741 -253.69609321 972.80016931 -268.40196824 983.25713849 C-269.65759568 984.14925031 -269.65759568 984.14925031 -270.93858933 985.05938458 C-280.58450863 991.93005438 -290.05565703 998.98513614 -299.40196824 1006.25713849 C-300.97223113 1007.45446394 -302.54250292 1008.65177829 -304.11363816 1009.8479588 C-315.27591136 1018.36649092 -326.13680011 1027.26572077 -336.81993699 1036.37627912 C-340.13875684 1039.20388061 -343.50371864 1041.96328925 -346.90196824 1044.69463849 C-352.28339028 1049.07048094 -357.34195393 1053.75022664 -362.40978074 1058.47979474 C-364.72437086 1060.63791568 -367.07092571 1062.74887659 -369.46446824 1064.81963849 C-373.70438677 1068.49423455 -377.84056074 1072.27935347 -381.96275926 1076.08501935 C-383.62511792 1077.61962955 -385.28833355 1079.15314894 -386.95735765 1080.68050885 C-398.41410311 1091.1652052 -409.40853939 1102.10821507 -420.37511277 1113.09991193 C-422.91408578 1115.64463549 -425.45759968 1118.18476595 -428.00241685 1120.72364354 C-429.99469081 1122.71228158 -431.98454982 1124.70332241 -433.97371507 1126.69506955 C-435.3586957 1128.08102306 -436.74565701 1129.46499641 -438.13268113 1130.84890485 C-442.54627041 1135.27882336 -446.82992896 1139.75580299 -450.88048387 1144.52157331 C-452.48265919 1146.34918308 -454.16692467 1148.05585447 -455.90196824 1149.75713849 C-458.8725423 1152.68180964 -461.60925943 1155.7433341 -464.32774949 1158.90166974 C-466.41631948 1161.27343566 -468.55729631 1163.58602216 -470.71397996 1165.89556623 C-475.73882972 1171.27753979 -480.51329051 1176.76563948 -485.12462449 1182.51104474 C-487.62024381 1185.52034213 -490.23982678 1188.39632291 -492.90196824 1191.25713849 C-497.13600991 1195.81300236 -501.13129054 1200.5098571 -505.03087449 1205.35479474 C-507.72027236 1208.64675952 -510.49345725 1211.85738346 -513.27696824 1215.06963849 C-517.78664242 1220.28756736 -522.09974963 1225.6247529 -526.32506394 1231.0745213 C-529.44074768 1235.07792007 -532.66251117 1238.96890218 -535.96446824 1242.81963849 C-540.85317785 1248.53458468 -545.45554036 1254.4431036 -550.00499558 1260.43047833 C-552.07673477 1263.13945292 -554.17700659 1265.82589616 -556.27574754 1268.51397443 C-573.58545556 1290.68623112 -590.37545999 1313.21578863 -606.80626512 1336.04522443 C-608.37983766 1338.22646177 -609.96006418 1340.40270526 -611.54259324 1342.57745099 C-627.95898489 1365.15570906 -643.50259384 1388.29106364 -658.94040513 1411.54368329 C-661.82439865 1415.88687263 -664.71530502 1420.22512316 -667.62071824 1424.55401349 C-681.00458692 1444.49592242 -693.87021197 1464.76998598 -706.40196824 1485.25713849 C-707.37021531 1486.84002667 -707.37021531 1486.84002667 -708.35802293 1488.4548924 C-718.85338865 1505.6356623 -729.19501094 1522.90321519 -739.40196824 1540.25713849 C-740.0116948 1541.29354474 -740.62142137 1542.32995099 -741.24962449 1543.39776349 C-749.21747829 1556.95860322 -757.04614027 1570.59304649 -764.74571824 1584.30791974 C-766.45115115 1587.34471654 -768.16082924 1590.37909885 -769.87071824 1593.41338849 C-777.32863547 1606.66777505 -784.63117109 1619.9992906 -791.84923387 1633.38555646 C-793.82618062 1637.04166459 -795.81954691 1640.68863957 -797.81481004 1644.33477521 C-808.7584281 1664.33625179 -819.52611583 1684.42270359 -829.95201707 1704.69878888 C-832.88236421 1710.39680166 -835.83126416 1716.08330455 -838.82266641 1721.74946904 C-844.10703063 1731.75923907 -849.32709048 1741.80034484 -854.48790574 1751.87432599 C-854.91799314 1752.71356484 -855.34808053 1753.5528037 -855.79120088 1754.41747403 C-869.31178175 1780.82411064 -882.53871777 1807.37977084 -895.79703236 1833.91869736 C-898.68538702 1839.69975458 -901.57672547 1845.47931556 -904.46876323 1851.25853097 C-907.31498871 1856.94639788 -910.15960925 1862.63506543 -913.00296271 1868.3243686 C-914.67724921 1871.67446951 -916.3520148 1875.02432797 -918.02826905 1878.3734448 C-924.6871674 1891.67954288 -931.28514448 1905.0091887 -937.6748507 1918.44720387 C-941.08667054 1925.6196951 -944.58349124 1932.74433383 -948.15505052 1939.83846784 C-949.14404149 1941.80304532 -950.13007571 1943.76908694 -951.11559129 1945.73540998 C-953.55869101 1950.60861479 -956.00629254 1955.47955435 -958.45384812 1960.35052228 C-960.5434899 1964.50965477 -962.6312484 1968.6697235 -964.71681809 1972.83089948 C-965.66245991 1974.71596388 -966.61059676 1976.59975587 -967.55895066 1978.48345685 C-971.33640652 1986.00713242 -974.998056 1993.58071296 -978.61485887 2001.18291974 C-983.95526713 2012.39661853 -989.47229807 2023.51650021 -995.0441649 2034.6166966 C-996.73873498 2037.992743 -998.43057108 2041.3701483 -1000.12181687 2044.74786115 C-1004.01551873 2052.52304385 -1007.91300535 2060.2963262 -1011.81074357 2068.0694859 C-1015.68288343 2075.791714 -1019.55330326 2083.51479828 -1023.42099595 2091.23925519 C-1025.06469935 2094.52031695 -1026.71085911 2097.80013763 -1028.35716844 2101.0798924 C-1033.21714687 2110.77644332 -1038.01888717 2120.49347463 -1042.66954637 2130.29229474 C-1049.33836824 2144.33062009 -1056.32294433 2158.21009765 -1063.2900908 2172.10184598 C-1065.18980983 2175.89109693 -1067.08679193 2179.68171754 -1068.98399949 2183.47222638 C-1074.19346252 2193.8792522 -1079.40699033 2204.28424027 -1084.62059617 2214.6891911 C-1089.40945828 2224.24657575 -1094.19739338 2233.80442206 -1098.98206162 2243.3639071 C-1100.85726442 2247.1102092 -1102.73329314 2250.85609234 -1104.6114409 2254.60091901 C-1111.666769 2268.66887073 -1118.68688639 2282.7452111 -1125.4350493 2296.96401715 C-1130.22719303 2307.04128438 -1135.22389255 2317.01447819 -1140.22936082 2326.98708844 C-1141.95753254 2330.43034636 -1143.68297615 2333.87496039 -1145.40782762 2337.31988263 C-1149.37878504 2345.24995049 -1153.3538285 2353.17796817 -1157.32897019 2361.10593915 C-1161.27763805 2368.98122944 -1165.22458954 2376.85737441 -1169.16881394 2384.73489118 C-1170.8457574 2388.08242961 -1172.52515609 2391.4287278 -1174.20470262 2394.77496076 C-1179.75312773 2405.84564091 -1185.20295081 2416.95503633 -1190.5219481 2428.13781476 C-1194.22296149 2435.91154191 -1198.02696181 2443.62867924 -1201.89583421 2451.32003522 C-1203.01920848 2453.55347021 -1204.1396914 2455.78833843 -1205.25963426 2458.02349591 C-1208.03665661 2463.56449588 -1210.81815967 2469.10324306 -1213.59960008 2474.64202619 C-1216.34858803 2480.11671273 -1219.09564197 2485.59236301 -1221.83946824 2491.06963849 C-1222.21936906 2491.82791944 -1222.59926988 2492.58620038 -1222.99068284 2493.36745954 C-1227.95037975 2503.27395859 -1232.82160322 2513.21553299 -1237.56603074 2523.22735333 C-1243.15778632 2535.00660152 -1249.05991402 2546.63159341 -1254.92247605 2558.2776463 C-1260.900684 2570.16101657 -1266.7860351 2582.07816797 -1272.49828172 2594.09185529 C-1276.19116691 2601.84895854 -1279.99944 2609.54216494 -1283.87013841 2617.21178937 C-1290.1295091 2629.61945382 -1296.26002828 2642.07699964 -1302.20274949 2654.63995099 C-1304.20864521 2658.87726255 -1306.28995041 2663.07176678 -1308.40196824 2667.25713849 C-1312.71172903 2663.16487965 -1316.33733429 2658.70828749 -1319.96446824 2654.00713849 C-1320.57725633 2653.21573468 -1321.19004441 2652.42433087 -1321.82140183 2651.60894513 C-1327.41448717 2644.33388648 -1332.71994087 2636.87677699 -1337.95177293 2629.33965802 C-1339.85080168 2626.61260158 -1341.7718285 2623.90146085 -1343.69371629 2621.1904881 C-1346.27148601 2617.55191845 -1348.83629187 2613.90424035 -1351.40196824 2610.25713849 C-1352.01056687 2609.39346662 -1352.61916551 2608.52979474 -1353.24620652 2607.63995099 C-1363.28324137 2593.37852387 -1372.98303026 2578.93380446 -1382.40196824 2564.25713849 C-1383.29528855 2562.86664289 -1383.29528855 2562.86664289 -1384.20665574 2561.44805646 C-1397.35036855 2540.96122681 -1410.13306685 2520.28008566 -1422.40196824 2499.25713849 C-1423.00299363 2498.22927228 -1423.60401902 2497.20140607 -1424.2232573 2496.1423924 C-1432.57944229 2481.83150029 -1440.67530136 2467.40601006 -1448.49059129 2452.79302716 C-1449.96157522 2450.05795798 -1451.45969968 2447.33866509 -1452.96373582 2444.62164044 C-1460.92617643 2430.20393972 -1468.42619247 2415.57087261 -1475.77327943 2400.83257413 C-1476.73046192 2398.91255668 -1477.68877944 2396.99310852 -1478.64717698 2395.07369733 C-1488.01371581 2376.30346916 -1497.1633749 2357.46929462 -1505.5390532 2338.23296857 C-1506.45301614 2336.14025331 -1507.37440682 2334.05093045 -1508.29747605 2331.96221662 C-1523.9327804 2296.5665726 -1538.28794828 2260.66197038 -1551.40196824 2224.25713849 C-1551.68149339 2223.48172711 -1551.96101853 2222.70631574 -1552.24901414 2221.90740705 C-1588.38114334 2121.52561537 -1614.98155692 2017.51789969 -1645.17479539 1779.4059422 C-1645.39484668 1776.35584926 -1645.62764274 1773.30699208 -1645.8638823 1770.25811505 C-1648.54604053 1735.07652643 -1648.69257686 1699.90120754 -1648.71204209 1664.63531232 C-1648.71442868 1660.94333102 -1648.71974525 1657.25136224 -1648.7253325 1653.55938458 C-1648.7594635 1622.73966273 -1648.2083913 1592.02649292 -1646.40196824 1561.25713849 C-1646.32644731 1559.96100629 -1646.25092637 1558.66487409 -1646.17311692 1557.32946515 C-1645.73601525 1550.04952389 -1645.22158309 1542.77782486 -1644.65196824 1535.50713849 C-1644.52791612 1533.89663617 -1644.52791612 1533.89663617 -1644.40135789 1532.25359845 C-1636.82690054 1434.6746903 -1621.25587008 1337.76055986 -1597.07652879 1242.9104588 C-1596.41004736 1240.28891694 -1595.74978583 1237.66588575 -1595.09142137 1235.04229474 C-1572.28898774 1144.30785653 -1541.09277101 1055.64651736 -1443.84386277 848.86749005 C-1442.29796385 846.06885285 -1440.78246542 843.2553065 -1439.27306199 840.43682599 C-1432.1669539 827.17051437 -1424.76858335 814.10972368 -1417.11192918 801.15362287 C-1415.46496694 798.3638513 -1413.82677179 795.56912572 -1412.19103074 792.77276349 C-1399.78607936 771.60777237 -1386.94852297 750.711539 -1373.40196824 730.25713849 C-1373.03011399 729.69559064 -1372.65825974 729.13404279 -1372.27513719 728.55547833 C-1359.32172087 709.00126893 -1346.30152778 689.52744416 -1332.51134324 670.55010724 C-1330.63021025 667.95983512 -1328.76134347 665.36242856 -1326.91759324 662.74541974 C-1320.55702314 653.71956901 -1313.88094409 644.94881073 -1307.16759324 636.18291974 C-1304.28148883 632.41431697 -1301.42362896 628.62740479 -1298.58946824 624.81963849 C-1290.47201072 613.97078695 -1281.96100438 603.43909917 -1273.39806199 592.94073224 C-1271.00200771 590.00110441 -1268.63256914 587.0418384 -1266.27696824 584.06963849 C-1262.78440233 579.68738737 -1259.17334753 575.41326343 -1255.54039598 571.14751935 C-1252.59122934 567.68022141 -1249.69923698 564.17400755 -1246.83946824 560.63213849 C-1243.01933507 555.93357898 -1238.98485568 551.47500083 -1234.88243699 547.02276349 C-1232.39732592 544.25196248 -1230.04752491 541.40662487 -1227.71446824 538.50713849 C-1224.67503223 534.7412292 -1221.53602408 531.27259688 -1218.06212449 527.90948224 C-1216.35812598 526.21350255 -1214.78482741 524.45224153 -1213.21446824 522.63213849 C-1208.62465667 517.31815665 -1203.83876039 512.18721431 -1199.05968308 507.04424787 C-1197.39473758 505.24934344 -1195.73592245 503.44892418 -1194.07774949 501.64776349 C-1187.21683777 494.21954124 -1180.21281621 486.96975883 -1172.99474168 479.88677716 C-1169.13923911 476.08325556 -1165.50893395 472.15898282 -1161.97154832 468.05816388 C-1160.04907177 465.85220502 -1158.03722702 463.75956076 -1155.96446824 461.69463849 C-1155.2851323 461.01272443 -1154.60579637 460.33081037 -1153.90587449 459.62823224 C-1151.88078531 457.71055809 -1149.82481126 455.88944819 -1147.71056199 454.07354474 C-1142.87095746 449.86703293 -1138.39773831 445.3250718 -1133.90196824 440.75713849 C-1128.80422751 435.57757207 -1123.70150486 430.50318842 -1118.15978074 425.79620099 C-1116.32373346 424.18863959 -1114.60986343 422.49952371 -1112.90196824 420.75713849 C-1109.95596609 417.76479474 -1106.87213817 415.00389677 -1103.69103074 412.26495099 C-1101.4664102 410.31366266 -1099.29060795 408.31560584 -1097.12145066 406.30303693 C-1091.95953899 401.51541527 -1086.67113266 396.98520181 -1081.18321824 392.56963849 C-1078.16175673 390.05741207 -1075.27777532 387.43290951 -1072.40196824 384.75713849 C-1067.82266522 380.50183236 -1063.10910815 376.48391159 -1058.23790574 372.56182599 C-1055.14608918 370.04919269 -1052.11765913 367.47059209 -1049.08946824 364.88213849 C-1044.10098852 360.63313101 -1039.00866411 356.54278366 -1033.83751512 352.51885724 C-1029.36869979 349.03602642 -1024.97241842 345.47218239 -1020.58946824 341.88213849 C-1012.34056814 335.14448726 -1003.90110966 328.67469538 -995.40196824 322.25713849 C-994.73697312 321.75327619 -994.07197801 321.24941388 -993.38683152 320.73028302 C-930.80488049 273.32719317 -864.46500783 230.62591671 -795.31993699 193.45245099 C-791.64086971 191.47310448 -787.97575709 189.47282315 -784.32774949 187.43682599 C-757.36470364 172.42698538 -729.49852402 158.99740974 -701.40196824 146.25713849 C-700.27162156 145.74022443 -699.14127488 145.22331037 -697.97667527 144.69073224 C-652.17202783 123.7470541 -605.27072131 105.26184367 -557.60350633 89.00921369 C-555.42339746 88.264459 -553.24499509 87.51490711 -551.0670073 86.76397443 C-455.43585765 53.83525192 -356.34897494 31.11994014 -135.65196824 4.00713849 C-134.70273484 3.93000623 -133.75350144 3.85287396 -132.7755034 3.77340436 C-125.32278073 3.17529306 -117.86576326 2.69433557 -110.40196824 2.25713849 C-109.68877427 2.21439298 -108.9755803 2.17164746 -108.24077439 2.12760663 C-72.172366 -0.01978228 -36.11636639 -0.0550929 0 0 Z " fill="#EEFFF9" transform="translate(1648.401968240738,-0.2571384906768799)"/>
<path d="M0 0 C0.89498199 0.28546692 1.78996399 0.57093384 2.71206665 0.86505127 C20.14725036 6.45368677 36.47306715 13.64114236 52.6875 22.125 C53.29941193 22.44353943 53.91132385 22.76207886 54.54177856 23.090271 C65.76437073 28.93468239 76.83713633 35.02383164 87.78662109 41.36669922 C89.58363893 42.40700989 91.38341972 43.44256363 93.18603516 44.47314453 C114.27868437 56.53323121 135.67076531 69.29850032 153.5 85.9375 C154.49564534 86.84177488 155.49304106 87.74412629 156.4921875 88.64453125 C158.27005922 90.25136111 160.0421763 91.8646174 161.8046875 93.48828125 C163.24610996 94.79809557 164.6932266 96.10244267 166.17456055 97.36694336 C172.05262938 102.39239258 177.51937393 107.80459774 182.97290039 113.2800293 C184.55959946 114.87208966 186.15157742 116.4587299 187.74414062 118.04492188 C193.20527192 123.5021125 198.5265578 129.02643475 203.5 134.9375 C204.76457031 136.41476562 204.76457031 136.41476562 206.0546875 137.921875 C211.78626545 144.75345276 217.22550632 151.74334658 222.5 158.9375 C223.23347656 159.90042969 223.96695313 160.86335938 224.72265625 161.85546875 C245.90833202 190.32703635 264.50786287 224.23705562 275.5 257.9375 C275.79487305 258.83210938 276.08974609 259.72671875 276.39355469 260.6484375 C280.95030367 274.58783958 284.81894453 288.65350221 288.375 302.875 C288.56808746 303.6445401 288.76117493 304.4140802 288.96011353 305.2069397 C294.92493873 329.07613349 294.92493873 329.07613349 294.5 336.9375 C295.16 336.9375 295.82 336.9375 296.5 336.9375 C297.96817705 349.07292907 299.01948047 361.16663246 299.625 373.375 C299.66636078 374.19588104 299.70772156 375.01676208 299.75033569 375.86251831 C300.85395897 398.11037106 300.86951135 419.71780821 298.2734375 441.87890625 C297.63494624 447.39622188 297.23593781 452.88957272 296.93188477 458.43383789 C294.81219091 494.16703949 281.14341093 532.88881239 263.5 563.9375 C262.75967529 565.24557617 262.75967529 565.24557617 262.00439453 566.58007812 C249.70587405 588.07947676 236.02638673 608.40075518 218.89453125 626.33203125 C216.63066574 628.70716909 214.45360166 631.13208236 212.31884766 633.62353516 C208.39322266 638.1229548 204.23060257 642.35114658 200.00390625 646.56640625 C199.21153061 647.35973862 198.41915497 648.15307098 197.60276794 648.97044373 C195.93749717 650.63639081 194.27097971 652.30109256 192.60327148 653.96459961 C190.06965378 656.49286134 187.54141833 659.02641661 185.01367188 661.56054688 C183.38573717 663.1878207 181.75749225 664.81478425 180.12890625 666.44140625 C179.38282608 667.18951065 178.63674591 667.93761505 177.86805725 668.70838928 C173.23794988 673.31815738 168.46365346 677.69027743 163.5 681.9375 C162.38207076 682.91060686 161.26476075 683.88442621 160.1484375 684.859375 C152.6189563 691.38007839 144.9172749 697.62138597 137.04736328 703.72509766 C134.89960061 705.40792969 132.79664566 707.14414442 130.6875 708.875 C124.30280111 713.99314074 117.56372873 718.61498849 110.85351562 723.29150391 C108.48379002 724.94883689 106.12374283 726.61916937 103.765625 728.29296875 C91.22202585 737.17507008 78.42734276 745.62595952 65.5 753.9375 C64.60587402 754.51467773 63.71174805 755.09185547 62.79052734 755.68652344 C12.96510273 787.82781851 -38.66889045 817.34048112 -90.43212891 846.22412109 C-93.51249612 847.94447897 -96.59061879 849.66878259 -99.66796875 851.39453125 C-110.47359374 857.45402273 -121.29106879 863.49125209 -132.125 869.5 C-141.41848112 874.65553679 -150.68762898 879.85155954 -159.93359375 885.09179688 C-166.98356815 889.0861305 -174.05150231 893.0474972 -181.125 897 C-192.28974636 903.24403536 -203.40960524 909.56246189 -214.5 915.9375 C-215.51707031 916.52144531 -216.53414062 917.10539062 -217.58203125 917.70703125 C-232.61867908 926.34355812 -247.6033226 935.06161698 -262.5 943.9375 C-263.47759277 944.51967285 -264.45518555 945.1018457 -265.46240234 945.70166016 C-309.45356354 971.92729557 -352.70206611 999.32344627 -394.5 1028.9375 C-395.28294434 1029.49163574 -396.06588867 1030.04577148 -396.87255859 1030.61669922 C-408.50561993 1038.87441581 -419.87094798 1047.47022588 -431.18359375 1056.16015625 C-433.17066537 1057.68480648 -435.16184082 1059.20372262 -437.15625 1060.71875 C-449.70263512 1070.28381588 -461.88455234 1080.30185735 -473.87597656 1090.55175781 C-475.56714221 1091.99479092 -477.26374619 1093.43124817 -478.9609375 1094.8671875 C-485.40027565 1100.33119195 -491.72215616 1105.89246747 -497.88671875 1111.66577148 C-500.65116568 1114.25196994 -503.45594566 1116.76790074 -506.328125 1119.234375 C-511.73582929 1123.94017346 -516.67676324 1129.10104741 -521.671875 1134.23632812 C-522.39632812 1134.97173828 -523.12078125 1135.70714844 -523.8671875 1136.46484375 C-524.51800293 1137.13249756 -525.16881836 1137.80015137 -525.83935547 1138.48803711 C-527.5 1139.9375 -527.5 1139.9375 -529.5 1139.9375 C-529.74081299 1140.50500977 -529.98162598 1141.07251953 -530.22973633 1141.65722656 C-531.75625408 1144.39750636 -533.58200967 1146.22789291 -535.82421875 1148.421875 C-536.68853516 1149.27523437 -537.55285156 1150.12859375 -538.44335938 1151.0078125 C-539.34892578 1151.89210938 -540.25449219 1152.77640625 -541.1875 1153.6875 C-547.20616297 1159.58797832 -553.02730174 1165.52675488 -558.5 1171.9375 C-559.95445517 1173.54518373 -561.41220895 1175.14989715 -562.875 1176.75 C-566.69914478 1180.9919085 -570.34889455 1185.34301097 -573.9375 1189.78515625 C-575.83020913 1192.12609881 -577.75250175 1194.43999212 -579.6875 1196.74609375 C-588.40666006 1207.16582989 -596.57130738 1217.90647725 -604.5 1228.9375 C-605.02867676 1229.67000977 -605.55735352 1230.40251953 -606.10205078 1231.15722656 C-624.13696879 1256.19473418 -640.17230142 1282.61381379 -654.5 1309.9375 C-655.00176758 1310.89043945 -655.50353516 1311.84337891 -656.02050781 1312.82519531 C-693.82659867 1385.1260685 -735.60439914 1477.61329014 -710.28955078 1559.49267578 C-703.67273247 1579.98148795 -693.37523208 1598.49865361 -679.5 1614.9375 C-678.81292969 1615.75992188 -678.12585937 1616.58234375 -677.41796875 1617.4296875 C-652.2963722 1646.48926405 -619.2334077 1654.53083417 -583.05975723 1661.27976608 C-580.84011037 1661.69401134 -578.62076834 1662.1098614 -576.40145874 1662.52590942 C-485.6733884 1679.51225155 -394.50807559 1694.10534132 562.9375 1783.75 C563.62649273 1783.78585787 564.31548547 1783.82171575 565.02535677 1783.85866022 C590.92241927 1785.20587526 616.8207301 1786.52673532 642.72314453 1787.76708984 C644.15768611 1787.83589503 645.59222749 1787.9047042 647.02676868 1787.97351742 C655.31662588 1788.37087491 655.31662588 1788.37087491 663.60674858 1788.76264381 C667.36038177 1788.93882322 671.11390933 1789.1171308 674.86743164 1789.2956543 C676.50280349 1789.37114659 676.50280349 1789.37114659 678.17121315 1789.44816399 C685.62664771 1789.8050639 693.06095976 1790.32931243 700.5 1790.9375 C696.09015053 1800.11032434 687.96010951 1807.74815113 681.29956055 1815.38793945 C678.13668139 1819.02301402 675.03222451 1822.6918109 672 1826.4375 C667.88106834 1831.52559206 663.59852666 1836.45753823 659.296875 1841.390625 C656.13520769 1845.02506499 653.03142528 1848.69279818 650 1852.4375 C645.88106834 1857.52559206 641.59852666 1862.45753823 637.296875 1867.390625 C634.13520769 1871.02506499 631.03142528 1874.69279818 628 1878.4375 C623.92242873 1883.47098541 619.69494085 1888.36083309 615.44189453 1893.24560547 C610.5212235 1898.90014879 605.67218901 1904.61222086 600.84277344 1910.34472656 C598.56578561 1913.04564812 596.28254206 1915.74127244 594 1918.4375 C593.08330416 1919.52080865 592.16663747 1920.60414196 591.25 1921.6875 C585.75 1928.1875 580.25 1934.6875 574.75 1941.1875 C574.29633057 1941.72366943 573.84266113 1942.25983887 573.37524414 1942.81225586 C572.45782203 1943.89645238 571.54034148 1944.98059945 570.62280273 1946.06469727 C568.34221456 1948.75942311 566.06262185 1951.45497812 563.78515625 1954.15234375 C559.00591674 1959.81020826 554.2055149 1965.44832743 549.375 1971.0625 C545.88184894 1975.12378745 542.43551604 1979.21268587 539.0625 1983.375 C534.91939009 1988.48057465 530.6176955 1993.43550053 526.29711914 1998.39038086 C523.13534162 2002.02487851 520.03149794 2005.69270843 517 2009.4375 C512.88106834 2014.52559206 508.59852666 2019.45753823 504.296875 2024.390625 C501.13520769 2028.02506499 498.03142528 2031.69279818 495 2035.4375 C490.92242873 2040.47098541 486.69494085 2045.36083309 482.44189453 2050.24560547 C477.5212235 2055.90014879 472.67218901 2061.61222086 467.84277344 2067.34472656 C465.56578561 2070.04564812 463.28254206 2072.74127244 461 2075.4375 C460.08330416 2076.52080865 459.16663747 2077.60414196 458.25 2078.6875 C449.08333333 2089.52083333 439.91666667 2100.35416667 430.75 2111.1875 C430.29633057 2111.72366943 429.84266113 2112.25983887 429.37524414 2112.81225586 C428.45782203 2113.89645238 427.54034148 2114.98059945 426.62280273 2116.06469727 C424.34221456 2118.75942311 422.06262185 2121.45497812 419.78515625 2124.15234375 C415.00591674 2129.81020826 410.2055149 2135.44832743 405.375 2141.0625 C401.88184894 2145.12378745 398.43551604 2149.21268587 395.0625 2153.375 C390.91939009 2158.48057465 386.6176955 2163.43550053 382.29711914 2168.39038086 C379.13534162 2172.02487851 376.03149794 2175.69270843 373 2179.4375 C368.88106834 2184.52559206 364.59852666 2189.45753823 360.296875 2194.390625 C357.13520769 2198.02506499 354.03142528 2201.69279818 351 2205.4375 C346.92242873 2210.47098541 342.69494085 2215.36083309 338.44189453 2220.24560547 C333.5212235 2225.90014879 328.67218901 2231.61222086 323.84277344 2237.34472656 C321.56578561 2240.04564812 319.28254206 2242.74127244 317 2245.4375 C316.08330416 2246.52080865 315.16663747 2247.60414196 314.25 2248.6875 C308.75 2255.1875 303.25 2261.6875 297.75 2268.1875 C297.29633057 2268.72366943 296.84266113 2269.25983887 296.37524414 2269.81225586 C295.45782203 2270.89645238 294.54034148 2271.98059945 293.62280273 2273.06469727 C291.34221456 2275.75942311 289.06262185 2278.45497812 286.78515625 2281.15234375 C282.00591674 2286.81020826 277.2055149 2292.44832743 272.375 2298.0625 C268.88184894 2302.12378745 265.43551604 2306.21268587 262.0625 2310.375 C257.91939009 2315.48057465 253.6176955 2320.43550053 249.29711914 2325.39038086 C246.13534162 2329.02487851 243.03149794 2332.69270843 240 2336.4375 C235.88106834 2341.52559206 231.59852666 2346.45753823 227.296875 2351.390625 C224.13520769 2355.02506499 221.03142528 2358.69279818 218 2362.4375 C213.92242873 2367.47098541 209.69494085 2372.36083309 205.44189453 2377.24560547 C200.5212235 2382.90014879 195.67218901 2388.61222086 190.84277344 2394.34472656 C188.56578561 2397.04564812 186.28254206 2399.74127244 184 2402.4375 C183.08330416 2403.52080865 182.16663747 2404.60414196 181.25 2405.6875 C175.75 2412.1875 170.25 2418.6875 164.75 2425.1875 C164.29633057 2425.72366943 163.84266113 2426.25983887 163.37524414 2426.81225586 C162.45782203 2427.89645238 161.54034148 2428.98059945 160.62280273 2430.06469727 C158.34221456 2432.75942311 156.06262185 2435.45497812 153.78515625 2438.15234375 C149.00591674 2443.81020826 144.2055149 2449.44832743 139.375 2455.0625 C135.88184894 2459.12378745 132.43551604 2463.21268587 129.0625 2467.375 C124.91939009 2472.48057465 120.6176955 2477.43550053 116.29711914 2482.39038086 C113.13534162 2486.02487851 110.03149794 2489.69270843 107 2493.4375 C102.88106834 2498.52559206 98.59852666 2503.45753823 94.296875 2508.390625 C91.13520769 2512.02506499 88.03142528 2515.69279818 85 2519.4375 C80.92242873 2524.47098541 76.69494085 2529.36083309 72.44189453 2534.24560547 C67.5212235 2539.90014879 62.67218901 2545.61222086 57.84277344 2551.34472656 C55.56578561 2554.04564812 53.28254206 2556.74127244 51 2559.4375 C50.08330416 2560.52080865 49.16663747 2561.60414196 48.25 2562.6875 C39.08333333 2573.52083333 29.91666667 2584.35416667 20.75 2595.1875 C20.29633057 2595.72366943 19.84266113 2596.25983887 19.37524414 2596.81225586 C18.45782203 2597.89645238 17.54034148 2598.98059945 16.62280273 2600.06469727 C14.34221456 2602.75942311 12.06262185 2605.45497812 9.78515625 2608.15234375 C5.00591674 2613.81020826 0.2055149 2619.44832743 -4.625 2625.0625 C-8.11815106 2629.12378745 -11.56448396 2633.21268587 -14.9375 2637.375 C-19.07996379 2642.47977843 -23.38119099 2647.43372682 -27.70068359 2652.38818359 C-31.62501658 2656.89984733 -35.43434037 2661.49084506 -39.19921875 2666.13671875 C-42.87772387 2670.61462736 -46.67039656 2674.99349295 -50.44921875 2679.38671875 C-56.67522367 2686.62566124 -62.8608624 2693.89615909 -68.875 2701.3125 C-73.04156423 2706.43483524 -77.36201281 2711.41167378 -81.70043945 2716.38793945 C-85.62489097 2720.89965363 -89.43426783 2725.49075555 -93.19921875 2730.13671875 C-96.88006413 2734.6174762 -100.67513193 2738.99909186 -104.45703125 2743.39453125 C-108.71351925 2748.34308716 -112.92167006 2753.3322854 -117.13232422 2758.31982422 C-118.52459417 2759.96658979 -119.92005473 2761.61060067 -121.31640625 2763.25390625 C-125.54853633 2768.23776248 -129.75737398 2773.23309272 -133.875 2778.3125 C-138.04156423 2783.43483524 -142.36201281 2788.41167378 -146.70043945 2793.38793945 C-150.62489097 2797.89965363 -154.43426783 2802.49075555 -158.19921875 2807.13671875 C-161.87772387 2811.61462736 -165.67039656 2815.99349295 -169.44921875 2820.38671875 C-175.67522367 2827.62566124 -181.8608624 2834.89615909 -187.875 2842.3125 C-192.04156423 2847.43483524 -196.36201281 2852.41167378 -200.70043945 2857.38793945 C-204.62489097 2861.89965363 -208.43426783 2866.49075555 -212.19921875 2871.13671875 C-215.87772387 2875.61462736 -219.67039656 2879.99349295 -223.44921875 2884.38671875 C-229.67522367 2891.62566124 -235.8608624 2898.89615909 -241.875 2906.3125 C-246.04156423 2911.43483524 -250.36201281 2916.41167378 -254.70043945 2921.38793945 C-258.62489097 2925.89965363 -262.43426783 2930.49075555 -266.19921875 2935.13671875 C-269.88006413 2939.6174762 -273.67513193 2943.99909186 -277.45703125 2948.39453125 C-281.71351925 2953.34308716 -285.92167006 2958.3322854 -290.13232422 2963.31982422 C-291.52459417 2964.96658979 -292.92005473 2966.61060067 -294.31640625 2968.25390625 C-298.54853633 2973.23776248 -302.75737398 2978.23309272 -306.875 2983.3125 C-311.04156423 2988.43483524 -315.36201281 2993.41167378 -319.70043945 2998.38793945 C-323.62489097 3002.89965363 -327.43426783 3007.49075555 -331.19921875 3012.13671875 C-334.87772387 3016.61462736 -338.67039656 3020.99349295 -342.44921875 3025.38671875 C-349.54850588 3033.64102177 -356.54585832 3041.96941509 -363.41796875 3050.4140625 C-366.36855029 3053.99018947 -369.4157775 3057.47642716 -372.5 3060.9375 C-377.46809228 3057.24327753 -381.08828897 3052.92218231 -384.9453125 3048.09765625 C-387.71583436 3044.64050781 -390.6039637 3041.28960141 -393.5 3037.9375 C-397.03655774 3033.83560244 -400.52864985 3029.70946082 -403.9375 3025.5 C-407.53636029 3021.06510683 -411.24732064 3016.74182214 -415 3012.4375 C-419.49743351 3007.27894505 -423.88995284 3002.05593114 -428.19921875 2996.73828125 C-430.88058916 2993.47420217 -433.62062863 2990.2649928 -436.375 2987.0625 C-436.88208496 2986.47291504 -437.38916992 2985.88333008 -437.91162109 2985.27587891 C-438.41902832 2984.68597168 -438.92643555 2984.09606445 -439.44921875 2983.48828125 C-445.67522367 2976.24933876 -451.8608624 2968.97884091 -457.875 2961.5625 C-462.04156423 2956.44016476 -466.36201281 2951.46332622 -470.70043945 2946.48706055 C-474.62489097 2941.97534637 -478.43426783 2937.38424445 -482.19921875 2932.73828125 C-485.38035204 2928.86583207 -488.64753555 2925.07021217 -491.91601562 2921.27148438 C-496.68706167 2915.72642833 -501.41348405 2910.14466321 -506.13232422 2904.55517578 C-507.52459417 2902.90841021 -508.92005473 2901.26439933 -510.31640625 2899.62109375 C-514.54853633 2894.63723752 -518.75737398 2889.64190728 -522.875 2884.5625 C-527.04156423 2879.44016476 -531.36201281 2874.46332622 -535.70043945 2869.48706055 C-539.62489097 2864.97534637 -543.43426783 2860.38424445 -547.19921875 2855.73828125 C-549.88058916 2852.47420217 -552.62062863 2849.2649928 -555.375 2846.0625 C-555.88208496 2845.47291504 -556.38916992 2844.88333008 -556.91162109 2844.27587891 C-557.67273193 2843.39101807 -557.67273193 2843.39101807 -558.44921875 2842.48828125 C-564.67522367 2835.24933876 -570.8608624 2827.97884091 -576.875 2820.5625 C-581.04156423 2815.44016476 -585.36201281 2810.46332622 -589.70043945 2805.48706055 C-593.62489097 2800.97534637 -597.43426783 2796.38424445 -601.19921875 2791.73828125 C-603.88058916 2788.47420217 -606.62062863 2785.2649928 -609.375 2782.0625 C-609.88208496 2781.47291504 -610.38916992 2780.88333008 -610.91162109 2780.27587891 C-611.67273193 2779.39101807 -611.67273193 2779.39101807 -612.44921875 2778.48828125 C-618.67522367 2771.24933876 -624.8608624 2763.97884091 -630.875 2756.5625 C-635.04156423 2751.44016476 -639.36201281 2746.46332622 -643.70043945 2741.48706055 C-647.62489097 2736.97534637 -651.43426783 2732.38424445 -655.19921875 2727.73828125 C-658.38035204 2723.86583207 -661.64753555 2720.07021217 -664.91601562 2716.27148438 C-669.68706167 2710.72642833 -674.41348405 2705.14466321 -679.13232422 2699.55517578 C-680.52459417 2697.90841021 -681.92005473 2696.26439933 -683.31640625 2694.62109375 C-687.54853633 2689.63723752 -691.75737398 2684.64190728 -695.875 2679.5625 C-700.04156423 2674.44016476 -704.36201281 2669.46332622 -708.70043945 2664.48706055 C-712.62489097 2659.97534637 -716.43426783 2655.38424445 -720.19921875 2650.73828125 C-723.38100572 2646.86503632 -726.64868614 2643.06847615 -729.91821289 2639.26928711 C-733.75363995 2634.81232542 -737.55858093 2630.33083756 -741.35058594 2625.83691406 C-744.75294656 2621.80928114 -748.18588046 2617.80875582 -751.625 2613.8125 C-755.11819482 2609.7512519 -758.56448551 2605.66231221 -761.9375 2601.5 C-766.08060991 2596.39442535 -770.3823045 2591.43949947 -774.70288086 2586.48461914 C-778.60421641 2581.99999149 -782.38485162 2577.4326833 -786.125 2572.8125 C-789.02495875 2569.30202361 -792.00758138 2565.86917273 -795 2562.4375 C-798.73404443 2558.15533896 -802.42458646 2553.85418732 -806 2549.4375 C-810.07757127 2544.40401459 -814.30505915 2539.51416691 -818.55810547 2534.62939453 C-823.4787765 2528.97485121 -828.32781099 2523.26277914 -833.15722656 2517.53027344 C-835.43421439 2514.82935188 -837.71745794 2512.13372756 -840 2509.4375 C-840.91669584 2508.35419135 -841.83336253 2507.27085804 -842.75 2506.1875 C-843.430625 2505.383125 -843.430625 2505.383125 -844.125 2504.5625 C-859.25 2486.6875 -859.25 2486.6875 -860.62475586 2485.06274414 C-861.54217797 2483.97854762 -862.45965852 2482.89440055 -863.37719727 2481.81030273 C-865.65778544 2479.11557689 -867.93737815 2476.42002188 -870.21484375 2473.72265625 C-871.12230733 2472.64836274 -872.0298596 2471.57414413 -872.9375 2470.5 C-873.61208252 2469.70166748 -873.61208252 2469.70166748 -874.30029297 2468.88720703 C-877.21251179 2465.44568184 -880.14356308 2462.02096344 -883.08398438 2458.60351562 C-887.09165256 2453.94568074 -891.06841613 2449.27446364 -894.9375 2444.5 C-899.08060991 2439.39442535 -903.3823045 2434.43949947 -907.70288086 2429.48461914 C-911.60421641 2424.99999149 -915.38485162 2420.4326833 -919.125 2415.8125 C-922.02495875 2412.30202361 -925.00758138 2408.86917273 -928 2405.4375 C-931.73404443 2401.15533896 -935.42458646 2396.85418732 -939 2392.4375 C-943.07757127 2387.40401459 -947.30505915 2382.51416691 -951.55810547 2377.62939453 C-956.4787765 2371.97485121 -961.32781099 2366.26277914 -966.15722656 2360.53027344 C-968.43421439 2357.82935188 -970.71745794 2355.13372756 -973 2352.4375 C-973.91669584 2351.35419135 -974.83336253 2350.27085804 -975.75 2349.1875 C-976.430625 2348.383125 -976.430625 2348.383125 -977.125 2347.5625 C-992.25 2329.68749999 -992.25 2329.68749999 -993.62475586 2328.06274414 C-994.54217797 2326.97854762 -995.45965852 2325.89440055 -996.37719727 2324.81030273 C-998.65778544 2322.11557689 -1000.93737815 2319.42002188 -1003.21484375 2316.72265625 C-1004.12230733 2315.64836274 -1005.0298596 2314.57414413 -1005.9375 2313.5 C-1006.61208252 2312.70166748 -1006.61208252 2312.70166748 -1007.30029297 2311.88720703 C-1010.21251179 2308.44568184 -1013.14356308 2305.02096344 -1016.08398438 2301.60351562 C-1020.09165256 2296.94568074 -1024.06841613 2292.27446364 -1027.9375 2287.5 C-1032.08060991 2282.39442535 -1036.3823045 2277.43949947 -1040.70288086 2272.48461914 C-1044.60421641 2267.99999149 -1048.38485162 2263.4326833 -1052.125 2258.8125 C-1055.02495875 2255.30202361 -1058.00758138 2251.86917273 -1061 2248.4375 C-1064.73404443 2244.15533896 -1068.42458646 2239.85418732 -1072 2235.4375 C-1076.07757127 2230.40401459 -1080.30505915 2225.51416691 -1084.55810547 2220.62939453 C-1089.4787765 2214.97485121 -1094.32781099 2209.26277914 -1099.15722656 2203.53027344 C-1101.43421439 2200.82935188 -1103.71745794 2198.13372756 -1106 2195.4375 C-1106.91669584 2194.35419135 -1107.83336253 2193.27085804 -1108.75 2192.1875 C-1109.430625 2191.383125 -1109.430625 2191.383125 -1110.125 2190.5625 C-1136.24999999 2159.68750001 -1136.24999999 2159.68750001 -1137.62475586 2158.06274414 C-1138.54217797 2156.97854762 -1139.45965852 2155.89440055 -1140.37719727 2154.81030273 C-1142.65778544 2152.11557689 -1144.93737815 2149.42002188 -1147.21484375 2146.72265625 C-1148.12230733 2145.64836274 -1149.0298596 2144.57414413 -1149.9375 2143.5 C-1150.61208252 2142.70166748 -1150.61208252 2142.70166748 -1151.30029297 2141.88720703 C-1154.21251179 2138.44568184 -1157.14356308 2135.02096344 -1160.08398438 2131.60351562 C-1164.09165256 2126.94568074 -1168.06841613 2122.27446364 -1171.9375 2117.5 C-1176.08060991 2112.39442535 -1180.3823045 2107.43949947 -1184.70288086 2102.48461914 C-1188.60421641 2097.99999149 -1192.38485162 2093.4326833 -1196.125 2088.8125 C-1199.02495875 2085.30202361 -1202.00758138 2081.86917273 -1205 2078.4375 C-1208.73404443 2074.15533896 -1212.42458646 2069.85418732 -1216 2065.4375 C-1220.07757127 2060.40401459 -1224.30505915 2055.51416691 -1228.55810547 2050.62939453 C-1233.4787765 2044.97485121 -1238.32781099 2039.26277914 -1243.15722656 2033.53027344 C-1245.43421439 2030.82935188 -1247.71745794 2028.13372756 -1250 2025.4375 C-1250.91669584 2024.35419135 -1251.83336253 2023.27085804 -1252.75 2022.1875 C-1253.430625 2021.383125 -1253.430625 2021.383125 -1254.125 2020.5625 C-1269.25 2002.6875 -1269.25 2002.6875 -1270.62475586 2001.06274414 C-1271.54217797 1999.97854762 -1272.45965852 1998.89440055 -1273.37719727 1997.81030273 C-1275.65778544 1995.11557689 -1277.93737815 1992.42002188 -1280.21484375 1989.72265625 C-1281.12230733 1988.64836274 -1282.0298596 1987.57414413 -1282.9375 1986.5 C-1283.38722168 1985.96777832 -1283.83694336 1985.43555664 -1284.30029297 1984.88720703 C-1287.21251179 1981.44568184 -1290.14356308 1978.02096344 -1293.08398438 1974.60351562 C-1297.09165256 1969.94568074 -1301.06841613 1965.27446364 -1304.9375 1960.5 C-1309.08060991 1955.39442535 -1313.3823045 1950.43949947 -1317.70288086 1945.48461914 C-1321.60421641 1940.99999149 -1325.38485162 1936.4326833 -1329.125 1931.8125 C-1332.02495875 1928.30202361 -1335.00758138 1924.86917273 -1338 1921.4375 C-1341.73404443 1917.15533896 -1345.42458646 1912.85418732 -1349 1908.4375 C-1353.07757127 1903.40401459 -1357.30505915 1898.51416691 -1361.55810547 1893.62939453 C-1366.4787765 1887.97485121 -1371.32781099 1882.26277914 -1376.15722656 1876.53027344 C-1378.43421439 1873.82935188 -1380.71745794 1871.13372756 -1383 1868.4375 C-1383.91669584 1867.35419135 -1384.83336253 1866.27085804 -1385.75 1865.1875 C-1386.20375 1864.65125 -1386.6575 1864.115 -1387.125 1863.5625 C-1402.25 1845.6875 -1402.25 1845.6875 -1403.62475586 1844.06274414 C-1404.54217797 1842.97854762 -1405.45965852 1841.89440055 -1406.37719727 1840.81030273 C-1408.65778544 1838.11557689 -1410.93737815 1835.42002188 -1413.21484375 1832.72265625 C-1414.12230733 1831.64836274 -1415.0298596 1830.57414413 -1415.9375 1829.5 C-1416.38722168 1828.96777832 -1416.83694336 1828.43555664 -1417.30029297 1827.88720703 C-1420.21251179 1824.44568184 -1423.14356308 1821.02096344 -1426.08398438 1817.60351562 C-1430.09165256 1812.94568074 -1434.06841613 1808.27446364 -1437.9375 1803.5 C-1442.07699625 1798.39887849 -1446.37434084 1793.4477254 -1450.69189453 1788.49780273 C-1454.7035927 1783.88735243 -1458.59723359 1779.20419628 -1462.41796875 1774.43359375 C-1465.15608746 1771.15093361 -1468.12761569 1768.11283082 -1471.1640625 1765.10546875 C-1473.0496334 1762.04555106 -1472.28637713 1760.38513826 -1471.5 1756.9375 C-1470.4868927 1754.39903259 -1470.4868927 1754.39903259 -1469.22192383 1751.85131836 C-1468.74608856 1750.88311661 -1468.2702533 1749.91491486 -1467.77999878 1748.91737366 C-1467.00137985 1747.36305885 -1467.00137985 1747.36305885 -1466.20703125 1745.77734375 C-1465.40085861 1744.14429543 -1465.40085861 1744.14429543 -1464.57839966 1742.47825623 C-1463.13007638 1739.54731049 -1461.67508173 1736.61979745 -1460.21720505 1733.69359589 C-1458.69877149 1730.64131158 -1457.18948761 1727.58451405 -1455.67993164 1724.52783203 C-1453.88997852 1720.90424643 -1452.09972402 1717.28081727 -1450.30583191 1713.65917969 C-1446.29880747 1705.5672858 -1442.3382988 1697.4560837 -1438.4375 1689.3125 C-1429.54191152 1670.7950662 -1420.45133441 1652.37234791 -1411.40048218 1633.93049622 C-1407.68185428 1626.35161225 -1403.97115616 1618.76888889 -1400.265625 1611.18359375 C-1381.76194036 1573.31135543 -1381.76194036 1573.31135543 -1374.27270508 1558.51977539 C-1370.90229783 1551.83877038 -1367.66617989 1545.10158143 -1364.453125 1538.34375 C-1357.60026743 1523.95029712 -1350.42396282 1509.72145305 -1343.26123047 1495.48046875 C-1341.53695556 1492.05037077 -1339.81532256 1488.6189549 -1338.09375 1485.1875 C-1337.5944397 1484.19717773 -1337.09512939 1483.20685547 -1336.58068848 1482.18652344 C-1333.05595334 1475.16014403 -1329.65245059 1468.08174864 -1326.2734375 1460.984375 C-1321.29092475 1450.52879538 -1316.16705669 1440.15013878 -1310.96897888 1429.80029297 C-1309.47601533 1426.82751722 -1307.9858269 1423.85336317 -1306.49621582 1420.87890625 C-1302.80092413 1413.50145966 -1299.10119111 1406.12624282 -1295.40155029 1398.75097656 C-1292.25507595 1392.47801008 -1289.11038476 1386.20415542 -1285.96788025 1379.92919922 C-1284.52361843 1377.04699671 -1283.07689254 1374.16604121 -1281.63000488 1371.28515625 C-1277.23397384 1362.51716545 -1272.90731538 1353.72467482 -1268.7109375 1344.859375 C-1260.02164963 1326.55632376 -1250.83175603 1308.49411919 -1241.75593376 1290.38090515 C-1239.04345615 1284.96605993 -1236.33365915 1279.54987361 -1233.62365723 1274.13378906 C-1226.16942031 1259.23726731 -1218.7111396 1244.34277115 -1211.25279999 1229.44830322 C-1204.40747099 1215.77792501 -1197.56303794 1202.10710008 -1190.72186232 1188.43464279 C-1188.03622612 1183.06749672 -1185.34974769 1177.70077587 -1182.66120911 1172.33508301 C-1168.40752415 1143.97561802 -1168.40752415 1143.97561802 -1154.6151123 1115.39038086 C-1151.13027848 1108.00129343 -1147.4275357 1100.71803452 -1143.7517395 1093.42266846 C-1137.48196497 1080.97483417 -1131.26573422 1068.51108577 -1125.30859375 1055.91015625 C-1121.44154151 1047.75043282 -1117.3890645 1039.687654 -1113.33203125 1031.62109375 C-1109.82819634 1024.63833272 -1106.4094425 1017.6216855 -1103.0625 1010.5625 C-1098.47416717 1000.88651577 -1093.71833313 991.30021513 -1088.88500977 981.74462891 C-1085.25446768 974.53992465 -1081.7469233 967.28517905 -1078.28125 960 C-1072.21683066 947.26351872 -1065.89654788 934.66123488 -1059.55224609 922.0625 C-1054.36670303 911.75791762 -1049.23147074 901.43746754 -1044.28515625 891.015625 C-1037.88977726 877.55297187 -1031.2215738 864.22836436 -1024.54760742 850.90234375 C-1022.78469788 847.38224145 -1021.02544696 843.8603249 -1019.26712608 840.33792877 C-1012.89165833 827.56941854 -1006.50740507 814.81160885 -999.81077576 802.2074585 C-996.25036547 795.50141075 -992.84986028 788.72130288 -989.48095703 781.91744995 C-984.55078179 771.96645321 -979.58299 762.0422206 -974.36279297 752.23950195 C-971.78972412 747.40291835 -969.26027602 742.54534335 -966.7578125 737.671875 C-966.42395035 737.02179977 -966.0900882 736.37172455 -965.74610901 735.70195007 C-965.05572365 734.35756504 -964.36533976 733.01317924 -963.67495728 731.66879272 C-958.20338331 721.0181088 -952.6497685 710.42865459 -946.86767578 699.94213867 C-943.13838867 693.16110001 -939.55150435 686.31312419 -936 679.4375 C-930.49246268 668.78283847 -924.80137658 658.2412628 -919.02685547 647.72949219 C-916.89926768 643.83900706 -914.79855829 639.93421793 -912.69580078 636.03027344 C-907.40883239 626.22132699 -902.02129095 616.4777493 -896.51367188 606.79101562 C-892.95474672 600.52781759 -889.44434785 594.23980228 -885.96044922 587.93457031 C-879.46225806 576.17530182 -872.8153243 564.51854815 -866.01171875 552.93359375 C-863.02753823 547.85075856 -860.08278154 542.74625337 -857.1484375 537.63452148 C-843.63053809 514.09504106 -829.80493767 490.75437963 -815.30615234 467.80419922 C-812.83430054 463.88091131 -810.38551641 459.94341594 -807.93530273 456.0065918 C-778.27210333 408.38538196 -746.89791531 361.89063489 -713.53271484 316.78125 C-710.01191205 312.01438144 -706.54616498 307.21373413 -703.125 302.375 C-699.11827314 296.72331328 -694.90065917 291.28732095 -690.5 285.9375 C-689.78070312 285.05578125 -689.06140625 284.1740625 -688.3203125 283.265625 C-686.80826844 281.41350182 -685.29392274 279.56325541 -683.77734375 277.71484375 C-682.28699798 275.89728656 -680.79988506 274.07707252 -679.31640625 272.25390625 C-670.56481498 261.50551697 -661.55886484 250.97476236 -652.5234375 240.46484375 C-650.53821036 238.15384555 -648.56493193 235.83349658 -646.6015625 233.50390625 C-640.54854468 226.34303357 -634.29960712 219.41395191 -627.83862305 212.61767578 C-624.76605763 209.38176936 -621.75661734 206.11302982 -618.83203125 202.7421875 C-615.68433588 199.11575351 -612.35201841 195.74915965 -608.90625 192.40625 C-606.97109602 190.42083228 -605.16945605 188.41080988 -603.36694336 186.30883789 C-599.49236201 181.86762487 -595.39474389 177.68780249 -591.22265625 173.52734375 C-590.45247665 172.75620743 -589.68229706 171.98507111 -588.88877869 171.19056702 C-587.27058627 169.57169847 -585.65114788 167.95407449 -584.03051758 166.33764648 C-581.56932768 163.88181282 -579.11352191 161.42068635 -576.65820312 158.95898438 C-575.07584133 157.37728347 -573.49316933 155.79589283 -571.91015625 154.21484375 C-571.18594986 153.48861313 -570.46174347 152.76238251 -569.71559143 152.0141449 C-565.66925137 147.98608988 -561.52993647 144.12973133 -557.19541931 140.41273499 C-555.02203779 138.52161081 -553.00546864 136.50467537 -551 134.4375 C-547.73275625 131.13142653 -544.37984369 128.03004539 -540.8515625 125.0078125 C-538.35551377 122.81029452 -535.93160111 120.54772251 -533.50756836 118.27148438 C-527.85646883 112.96528763 -522.12173484 107.88685103 -516.06640625 103.0390625 C-513.52440637 100.95748573 -511.10470665 98.7871162 -508.6875 96.5625 C-504.13513538 92.39679456 -499.34544218 88.61423015 -494.40893555 84.91845703 C-491.54786873 82.73435547 -489.36180222 80.76708569 -487.0703125 77.94140625 C-483.97620061 74.32533931 -480.67552809 72.09751185 -476.6875 69.5625 C-475.07376297 68.51372181 -473.46050724 67.46420278 -471.84765625 66.4140625 C-470.98543457 65.8562207 -470.12321289 65.29837891 -469.23486328 64.72363281 C-466.36596505 62.84996209 -463.52273942 60.94186799 -460.68359375 59.0234375 C-448.18432672 50.58305915 -435.56209052 42.47989277 -422.5 34.9375 C-421.77748047 34.51839355 -421.05496094 34.09928711 -420.31054688 33.66748047 C-367.87643621 3.41611114 -311.85384661 -13.72483595 -252.5 -24.0625 C-251.60071777 -24.22830566 -250.70143555 -24.39411133 -249.77490234 -24.56494141 C-167.24052265 -39.68190137 -78.85782943 -25.36332526 0 0 Z M263.5 233.9375 C264.5 235.9375 264.5 235.9375 264.5 235.9375 Z M264.5 236.9375 C265.5 238.9375 265.5 238.9375 265.5 238.9375 Z M265.5 238.9375 C266.5 240.9375 266.5 240.9375 266.5 240.9375 Z " fill="#EEFFF9" transform="translate(2027.5,1164.0625)"/>
</svg>
